<?xml version="1.0" standalone="no"?><!DOCTYPE svg PUBLIC "-//W3C//DTD SVG 1.1//EN"
  "http://www.w3.org/Graphics/SVG/1.1/DTD/svg11.dtd">
<svg t="1564745227970" class="icon" viewBox="0 0 1024 1024" version="1.1" xmlns="http://www.w3.org/2000/svg" p-id="1188"
     xmlns:xlink="http://www.w3.org/1999/xlink" width="200" height="200">
  <defs>
    <style type="text/css"></style>
  </defs>
  <path
    d="M760.458745 138.243551 67.200518 138.243551l0 248.103658 693.258227 0L760.458745 138.243551zM710.797695 336.685135 116.861568 336.685135l0-51.728128 45.659923 0 0-49.66105-45.659923 0 0-47.391357 593.936127 0L710.797695 336.685135z"
    p-id="1189"></path>
  <path
    d="M67.200518 436.210873l0 246.036579 893.904013 0L961.104531 436.210873 67.200518 436.210873zM911.443481 632.586402 116.861568 632.586402 116.861568 485.872946l794.581913 0L911.443481 632.586402z"
    p-id="1190"></path>
  <path
    d="M67.200518 880.892675l792.58135 0L859.781868 732.11214 67.200518 732.11214 67.200518 880.892675zM116.861568 781.77319l693.258227 0 0 49.458435L116.861568 831.231625 116.861568 781.77319z"
    p-id="1191"></path>
  <path d="M410.828786 235.295957l248.307296 0 0 49.66105-248.307296 0 0-49.66105Z" p-id="1192"></path>
  <path d="M311.505663 235.295957l49.66105 0 0 49.66105-49.66105 0 0-49.66105Z" p-id="1193"></path>
  <path d="M212.183564 235.295957l49.66105 0 0 49.66105-49.66105 0 0-49.66105Z" p-id="1194"></path>
  <path d="M760.458745 533.263279l99.323123 0 0 49.66105-99.323123 0 0-49.66105Z" p-id="1195"></path>
  <path d="M661.135622 533.263279l49.66105 0 0 49.66105-49.66105 0 0-49.66105Z" p-id="1196"></path>
  <path d="M561.813522 533.263279l49.66105 0 0 49.66105-49.66105 0 0-49.66105Z" p-id="1197"></path>
  <path d="M462.4904 533.263279l49.66105 0 0 49.66105-49.66105 0 0-49.66105Z" p-id="1198"></path>
</svg>
