<?xml version="1.0" standalone="no"?><!DOCTYPE svg PUBLIC "-//W3C//DTD SVG 1.1//EN" "http://www.w3.org/Graphics/SVG/1.1/DTD/svg11.dtd"><svg t="1568949403437" class="icon" viewBox="0 0 1024 1024" version="1.1" xmlns="http://www.w3.org/2000/svg" p-id="1195" xmlns:xlink="http://www.w3.org/1999/xlink" width="200" height="200"><defs><style type="text/css"></style></defs><path d="M977.6 563.76a16 16 0 0 0-21.68-1.84 81.28 81.28 0 0 1-49.28 18.4c-70.24 0-105.76-146.8-105.76-146.8H223.12S187.6 580.8 117.36 580.4a81.28 81.28 0 0 1-49.28-18.4 16 16 0 0 0-21.68 1.84 16 16 0 0 0 0.56 22.64c36.8 35.04 108.32 20.8 108.32 20.8h713.6s71.44 14.32 108.32-20.8a16 16 0 0 0 0.56-22.64zM890.72 304a14.8 14.8 0 0 0-19.2-1.12c-16.88 12.96-52.4 37.12-81.28 36.16-44.88-1.52-97.12-132.64-97.12-132.64s-7.12-39.04 0-56-27.2-13.6-35.52 10.08-24.88 20.16-36.08 19.52c-8-0.4-61.12-1.12-94.16-1.44h-26.08c-42.72 0-123.76 1.12-132 1.52-11.28 0.56-27.84 4.16-36.08-19.52s-42.64-26.64-35.52-10.08 0 56 0 56-52.16 131.2-97.12 132.72c-28.88 0.96-64-23.2-81.28-36.16a14.8 14.8 0 0 0-19.2 1.12 14.8 14.8 0 0 0-0.64 20.8c27.36 29.04 64.64 49.12 102.32 40.88 21.92-4.8 226.32-3.76 299.6-3.2h26.08c66.64-0.56 240-1.52 261.68 3.2 37.68 8 74.96-11.84 102.32-40.88a14.8 14.8 0 0 0-0.64-20.8z" p-id="1196"></path><path d="M317.84 490.24a17.2 17.2 0 0 1-17.2-17.2V339.2a17.2 17.2 0 1 1 34.4 0v133.84a17.2 17.2 0 0 1-17.2 17.2zM680 496a17.2 17.2 0 0 1-17.2-17.2V345.12a17.2 17.2 0 0 1 34.4 0v133.84A17.2 17.2 0 0 1 680 496zM262.56 561.44v322.08h148.8v-78.96a94.72 94.72 0 0 1 189.52 0v78.96H749.6V561.44z m448 93.04H296a17.2 17.2 0 0 1 0-34.4h415.2a17.2 17.2 0 1 1 0 34.4z" p-id="1197"></path></svg>