<?xml version="1.0" standalone="no"?><!DOCTYPE svg PUBLIC "-//W3C//DTD SVG 1.1//EN"
  "http://www.w3.org/Graphics/SVG/1.1/DTD/svg11.dtd">
<svg t="1564753462924" class="icon" viewBox="0 0 1024 1024" version="1.1" xmlns="http://www.w3.org/2000/svg" p-id="1925"
     xmlns:xlink="http://www.w3.org/1999/xlink" width="200" height="200">
  <defs>
    <style type="text/css"></style>
  </defs>
  <path
    d="M512 952c-40.8 0-82.4-5.6-121.6-17.6-6.4-1.6-10.4-7.2-11.2-13.6-0.8-6.4 2.4-12.8 8-16 96.8-56 197.6-134.4 290.4-228 93.6-93.6 172-193.6 228-290.4 3.2-5.6 9.6-8.8 16-8 6.4 0.8 12 5.6 13.6 11.2 11.2 40 17.6 80.8 17.6 121.6C952 754.4 754.4 952 512 952z m-75.2-39.2c24.8 4.8 50.4 7.2 75.2 7.2 224.8 0 408-183.2 408-408 0-25.6-2.4-50.4-7.2-75.2-55.2 88.8-128 179.2-212.8 263.2-84.8 84-175.2 157.6-263.2 212.8z"
    p-id="1926"></path>
  <path
    d="M919.2 410.4h-1.6c-6.4-0.8-12-5.6-13.6-11.2-38.4-133.6-145.6-240.8-279.2-279.2-6.4-1.6-10.4-7.2-11.2-13.6-0.8-6.4 2.4-12.8 8-16C787.2-4.8 918.4-23.2 982.4 40.8c64 64 46.4 196-49.6 360.8-2.4 6.4-8 8.8-13.6 8.8zM668.8 101.6c116 44.8 209.6 137.6 253.6 253.6 72-135.2 85.6-242.4 37.6-291.2-48.8-48-156-34.4-291.2 37.6zM147.2 1020c-44 0-80-12.8-105.6-37.6-64-64-46.4-196 49.6-360.8 3.2-5.6 9.6-8.8 16-8 6.4 0.8 12 5.6 13.6 11.2C159.2 758.4 266.4 865.6 400 904c6.4 1.6 10.4 7.2 11.2 13.6 0.8 6.4-2.4 12.8-8 16-100.8 56.8-188.8 86.4-256 86.4z m-45.6-351.2C29.6 804 16 911.2 64 960c48.8 48.8 156 34.4 291.2-36.8-116-44.8-209.6-138.4-253.6-254.4z"
    p-id="1927"></path>
  <path
    d="M394.4 935.2c-1.6 0-3.2 0-4.8-0.8-144-41.6-259.2-156.8-300.8-300.8C78.4 594.4 72 552.8 72 512 72 269.6 269.6 72 512 72c40.8 0 82.4 5.6 121.6 17.6 144 41.6 259.2 156.8 300.8 300.8 1.6 4 0.8 8.8-1.6 12.8-57.6 99.2-137.6 201.6-232.8 297.6-95.2 95.2-198.4 176-296.8 232.8-3.2 0.8-5.6 1.6-8.8 1.6zM512 104c-224.8 0-408 183.2-408 408 0 38.4 5.6 76 16 112.8 37.6 131.2 141.6 236.8 272 276.8 95.2-56 193.6-132.8 284.8-224.8C768 585.6 845.6 487.2 901.6 392c-40-130.4-145.6-234.4-276.8-272-36.8-10.4-74.4-16-112.8-16z"
    p-id="1928"></path>
  <path
    d="M849.6 395.2c-3.2 0-6.4-1.6-7.2-5.6-39.2-104-125.6-184.8-232-216-4-1.6-6.4-5.6-5.6-9.6 1.6-4 5.6-6.4 9.6-5.6 111.2 32 202.4 116 243.2 225.6 1.6 4-0.8 8.8-4.8 10.4-1.6 0-2.4 0.8-3.2 0.8z"
    p-id="1929"></path>
</svg>
