<?xml version="1.0" standalone="no"?><!DOCTYPE svg PUBLIC "-//W3C//DTD SVG 1.1//EN" "http://www.w3.org/Graphics/SVG/1.1/DTD/svg11.dtd"><svg t="1568954268634" class="icon" viewBox="0 0 1030 1024" version="1.1" xmlns="http://www.w3.org/2000/svg" p-id="6508" xmlns:xlink="http://www.w3.org/1999/xlink" width="201.171875" height="200"><defs><style type="text/css"></style></defs><path d="M662.187 955.733V819.2H361.813v136.533l-61.44 34.134S279.893 1024 307.2 1024h395.947s27.306-13.653 13.653-27.307c-6.827-13.653-54.613-40.96-54.613-40.96zM921.6 0H102.4C47.787 0 0 47.787 0 102.4v580.267c0 54.613 47.787 102.4 102.4 102.4h826.027c54.613 0 102.4-47.787 102.4-102.4V102.4C1024 47.787 976.213 0 921.6 0z m34.133 546.133c0 40.96-27.306 68.267-68.266 68.267h-757.76c-34.134 0-61.44-34.133-61.44-68.267v-409.6c0-40.96 27.306-68.266 68.266-68.266h757.76c34.134 0 68.267 34.133 68.267 68.266v409.6z" p-id="6509"></path><path d="M614.4 273.067h136.533v68.266H614.4z m0 136.533h204.8v68.267H614.4z m-477.867-13.653V409.6c0 6.827 0 6.827 6.827 13.653 0 6.827 6.827 6.827 6.827 13.654s6.826 6.826 6.826 6.826h54.614c6.826 0 6.826 6.827 13.653 6.827 6.827 13.653 13.653 20.48 13.653 27.307s0 20.48-6.826 27.306v20.48l6.826 6.827c6.827 0 6.827 6.827 13.654 6.827s13.653 6.826 20.48 6.826h20.48l6.826-6.826c0-6.827 6.827-13.654 13.654-20.48 6.826-13.654 20.48-13.654 27.306-13.654 6.827 0 20.48 0 27.307 6.827 6.827 6.827 13.653 13.653 13.653 27.307 0 6.826 6.827 6.826 6.827 6.826h27.307c6.826 0 13.653 0 13.653-6.826 6.827 0 6.827-6.827 13.653-6.827s6.827-6.827 6.827-6.827v-20.48c0-6.826-6.827-13.653-6.827-20.48 0-6.826 6.827-13.653 13.654-27.306 6.826-6.827 13.653-6.827 20.48-6.827h13.653c6.827 0 13.653 0 20.48 6.827h13.653l6.827-6.827c0-6.827 6.827-6.827 6.827-13.653 0-13.654 6.826-20.48 6.826-27.307v-13.653c0-6.827-6.826-13.654-6.826-13.654-6.827-6.826-13.654-6.826-20.48-20.48-13.654 0-13.654-13.653-13.654-20.48 0-13.653 6.827-20.48 13.654-27.306 0-6.827 6.826-13.654 20.48-20.48 0 0 6.826 0 6.826-6.827v-20.48c0-6.827 0-6.827-6.826-13.653 0-6.827-6.827-6.827-6.827-13.654s-6.827-6.826-6.827-6.826H512c-6.827 6.826-20.48 6.826-27.307 0-6.826 0-20.48-6.827-27.306-13.654-6.827-6.826-6.827-6.826-6.827-13.653v-47.787c0-6.826-6.827-6.826-6.827-13.653-6.826 0-6.826-6.827-13.653-6.827-6.827 6.827-13.653 0-20.48 0h-13.653c-6.827 0-6.827 0-6.827 6.827l-6.827 6.827c0 6.826-6.826 13.653-13.653 20.48-6.827 6.826-13.653 6.826-27.307 6.826s-20.48 0-27.306-6.826c-6.827-6.827-13.654-13.654-13.654-20.48 0 0 0-6.827-6.826-6.827 0-6.827-6.827-6.827-6.827-6.827h-13.653c-6.827 0-6.827 0-13.654 6.827-6.826 0-6.826 6.827-13.653 6.827s-6.827 6.826-6.827 13.653v40.96c0 6.827-6.826 20.48-13.653 27.307-6.827 6.826-13.653 13.653-27.307 13.653s-20.48 0-27.306-6.827h-6.827s-6.827 0-6.827 6.827c-6.826 6.827-6.826 13.653-13.653 20.48s-6.827 6.827-6.827 13.653v13.654l6.827 6.826c6.827 0 13.653 6.827 20.48 13.654s13.653 13.653 13.653 27.306c0 6.827 0 20.48-6.826 27.307-6.827 6.827-13.654 13.653-20.48 13.653 0 0-6.827 0-6.827 6.827l-6.827 6.827z m204.8 40.96c-13.653 0-27.306 0-34.133-6.827-13.653-6.827-27.307-13.653-34.133-20.48-6.827-6.827-13.654-20.48-20.48-27.307-6.827-13.653-6.827-27.306-6.827-40.96 0-13.653 0-27.306 6.827-34.133 6.826-13.653 13.653-27.307 20.48-34.133 6.826-6.827 20.48-13.654 34.133-20.48 6.827-6.827 20.48-6.827 34.133-6.827s27.307 0 34.134 6.827c13.653 6.826 27.306 13.653 34.133 20.48 6.827 6.826 13.653 20.48 20.48 27.306 6.827 13.654 6.827 27.307 6.827 40.96s0 27.307-6.827 34.134c-6.827 13.653-13.653 27.306-20.48 34.133-6.827 6.827-20.48 13.653-27.307 20.48-13.653 6.827-27.306 6.827-40.96 6.827z" p-id="6510"></path></svg>