<?xml version="1.0" standalone="no"?><!DOCTYPE svg PUBLIC "-//W3C//DTD SVG 1.1//EN" "http://www.w3.org/Graphics/SVG/1.1/DTD/svg11.dtd"><svg t="1568946283212" class="icon" viewBox="0 0 1066 1024" version="1.1" xmlns="http://www.w3.org/2000/svg" p-id="1789" xmlns:xlink="http://www.w3.org/1999/xlink" width="208.203125" height="200"><defs><style type="text/css"></style></defs><path d="M754.785652 1024v-43.663875a109.149023 109.149023 0 0 1 109.127692-109.170354h87.30642a109.149023 109.149023 0 0 1 109.127693 109.170354v43.663875H754.785652z m152.791568-185.576803a98.249052 98.249052 0 1 1 0-196.498104 98.249052 98.249052 0 0 1 0 196.498104z m-202.342708-43.663875a37.755281 37.755281 0 0 1-19.069616-5.140691l-152.919552-88.308961-152.940882 88.308961a38.181894 38.181894 0 0 1-38.181894-66.167729l152.919552-88.308961v-176.639254a38.181894 38.181894 0 1 1 76.385118 0v176.639254l152.940883 88.308961a38.245886 38.245886 0 0 1-19.133609 71.30842zM372.817398 338.432363a109.149023 109.149023 0 0 1 109.127692-109.191685h87.30642a109.149023 109.149023 0 0 1 109.127693 109.191685v43.642544H372.817398v-43.642544z m152.791568-141.934259a98.249052 98.249052 0 1 1 0-196.498104 98.249052 98.249052 0 0 1 0 196.498104zM6.121901 980.336125a109.170354 109.170354 0 0 1 109.127693-109.170354h87.30642a109.149023 109.149023 0 0 1 109.127692 109.170354v43.663875H6.121901v-43.663875z m152.791568-141.912928a98.227722 98.227722 0 0 1-98.227721-98.249052 98.249052 98.249052 0 1 1 98.227721 98.249052z" p-id="1790"></path></svg>