<?xml version="1.0" standalone="no"?><!DOCTYPE svg PUBLIC "-//W3C//DTD SVG 1.1//EN"
  "http://www.w3.org/Graphics/SVG/1.1/DTD/svg11.dtd">
<svg t="1568273303411" class="icon" viewBox="0 0 1024 1024" version="1.1" xmlns="http://www.w3.org/2000/svg" p-id="528"
     xmlns:xlink="http://www.w3.org/1999/xlink" width="200" height="200">
  <defs>
    <style type="text/css"></style>
  </defs>
  <path
    d="M891 129H133c-2.2 0-4 1.8-4 4v758c0 2.2 1.8 4 4 4h758c2.2 0 4-1.8 4-4V133c0-2.2-1.8-4-4-4z m-44 718H177V177h670v670z"
    p-id="529"></path>
  <path
    d="M399 739.6h0.8c61-0.4 119.6-51.4 149.1-81.7 14.9-15.3 14.7-40-0.4-55.1l-45.9-45.9 173.5-173.5 50.9 50.9c1.6 1.6 4.1 1.6 5.7 0l22.6-22.6c1.6-1.6 1.6-4.1 0-5.7L625.2 275.8c-1.6-1.6-4.1-1.6-5.7 0l-22.6 22.6c-1.6 1.6-1.6 4.1 0 5.7l50.9 50.9-173.5 173.6-45.9-45.9c-15.1-15.1-39.8-15.3-55.1-0.4-30.3 29.5-81.3 88.1-81.7 149.1-0.2 28.8 10.7 54.4 32.3 76 21.3 21.4 46.6 32.2 75.1 32.2z m1.6-228.2l45.4 45.4-27.3 27.3c-7.8 7.8-7.8 20.5 0 28.3 3.9 3.9 9 5.9 14.1 5.9s10.2-2 14.1-5.9l27.3-27.3 45.4 45.4c-20.6 21.1-72.4 68.7-120.2 69.1h-0.5c-17.7 0-33.1-6.7-46.9-20.6-14-14-20.7-29.5-20.6-47.4 0.4-47.7 48.1-99.6 69.2-120.2z"
    p-id="530"></path>
</svg>
