<?xml version="1.0" standalone="no"?><!DOCTYPE svg PUBLIC "-//W3C//DTD SVG 1.1//EN"
  "http://www.w3.org/Graphics/SVG/1.1/DTD/svg11.dtd">
<svg t="1568274803865" class="icon" viewBox="0 0 1024 1024" version="1.1" xmlns="http://www.w3.org/2000/svg" p-id="1353"
     xmlns:xlink="http://www.w3.org/1999/xlink" width="200" height="200">
  <defs>
    <style type="text/css"></style>
  </defs>
  <path
    d="M311.2 429.6V385c0-0.9-0.8-1.7-1.7-1.7h-44.6c-0.9 0-1.7 0.8-1.7 1.7v44.6c0 0.9 0.8 1.7 1.7 1.7h44.6c1-0.1 1.7-0.8 1.7-1.7zM263.9 494.1c-0.9 0-1.7 0.8-1.7 1.7v44.6c0 0.9 0.8 1.7 1.7 1.7h44.6c0.9 0 1.7-0.8 1.7-1.7v-44.6c0-0.9-0.8-1.7-1.7-1.7h-44.6zM829.8 604.5l-18.7 18.7 35.5 35.5-114.4 114.4-30.3-30.3c-10-10-26.3-10.1-36.4-0.3-20 19.5-53.6 58.1-53.9 98.4-0.1 19 7 35.9 21.3 50.1 14.1 14.1 30.8 21.3 49.6 21.3h0.5c40.3-0.3 78.9-33.9 98.4-53.9 9.8-10.1 9.7-26.4-0.3-36.4l-30.3-30.3 114.5-114.5 35.5 35.5 18.7-18.7-89.7-89.5z m-67.7 235.9c-13.6 13.9-47.8 45.4-79.3 45.6h-0.3c-11.7 0-21.8-4.4-31-13.6s-13.6-19.4-13.6-31.3c0.2-31.5 31.7-65.7 45.6-79.3l30 30-18 18c-5.2 5.2-5.2 13.5 0 18.7 2.6 2.6 6 3.9 9.3 3.9s6.8-1.3 9.3-3.9l18-18 30 29.9zM599.9 387.2H351.4c-0.9 0-1.7 0.8-1.7 1.7v44.6c0 0.9 0.8 1.7 1.7 1.7h248.5c0.9 0 1.7-0.8 1.7-1.7v-44.6c0-0.9-0.7-1.7-1.7-1.7zM599.3 498.1H350.7c-0.9 0-1.7 0.8-1.7 1.7v44.6c0 0.9 0.8 1.7 1.7 1.7h248.5c0.9 0 1.7-0.8 1.7-1.7v-44.6c0-1-0.7-1.7-1.6-1.7z"
    p-id="1354"></path>
  <path
    d="M152.6 181h84.3v65c0 1.1 0.9 2 2 2h429c1.1 0 2-0.9 2-2v-65h83.8v415h48V135c0-1.1-0.9-2-2-2H669.8V80c0-1.1-0.9-2-2-2h-429c-1.1 0-2 0.9-2 2v53H106.6c-1.1 0-2 0.9-2 2v809c0 1.1 0.9 2 2 2h494v-48h-448V181z m132.2-53c0-1.1 0.9-2 2-2h333c1.1 0 2 0.9 2 2v70c0 1.1-0.9 2-2 2h-333c-1.1 0-2-0.9-2-2v-70z"
    p-id="1355"></path>
</svg>
