<?xml version="1.0" standalone="no"?><!DOCTYPE svg PUBLIC "-//W3C//DTD SVG 1.1//EN" "http://www.w3.org/Graphics/SVG/1.1/DTD/svg11.dtd"><svg t="1568949322284" class="icon" viewBox="0 0 1024 1024" version="1.1" xmlns="http://www.w3.org/2000/svg" p-id="780" xmlns:xlink="http://www.w3.org/1999/xlink" width="200" height="200"><defs><style type="text/css"></style></defs><path d="M517.49 957.969a289.84 289.84 0 0 1-33.936-33.128h-47.912c-8.77 0-16.569 6.819-16.569 16.564 0 8.77 6.824 16.563 16.564 16.563h81.853zM521.346 510.914l-77.918-20.625c-4.872-0.976-10.715-0.976-14.613 1.946-4.873 2.922-7.799 6.819-8.77 11.687l-28.256 106.203a286.784 286.784 0 0 0-9.74 74.046c-6.819-0.976-14.619-0.976-21.437-0.976-45.795 1.946-86.718 24.358-113.022 60.408-6.819-0.976-14.618-0.976-21.437-0.976-65.28 2.922-116.92 57.486-113.997 123.742 0 10.716 9.744 19.481 20.46 18.511 10.72 0 19.485-9.741 18.515-20.457-1.947-43.849 32.148-80.874 76.971-82.82 8.208 0.01 16.385 0.994 24.358 2.922 8.77 1.946 17.54-0.976 21.437-8.765 18.515-32.153 51.638-51.639 88.668-53.594 17.826-0.659 35.09 3.271 50.471 10.798 0.932-89.868 43.012-169.864 108.31-222.05zM682.365 448.616l62.127-232.111 23.383 5.843c31.173 8.769 63.334-9.741 71.129-40.918 3.893-14.618 1.941-31.182-5.844-44.82-7.794-13.642-20.466-23.382-35.074-27.285L638.294 66.457c-31.182-8.77-63.334 9.741-71.124 40.918-3.896 14.617-1.946 31.182 5.844 44.819 7.794 13.643 20.461 23.383 35.074 27.28l23.383 5.848-81.795 305.612c39.014-24.142 84.22-39.221 132.689-42.318zM341.131 924.841H190.109c-8.775 0-16.564 6.819-16.564 16.564 0 8.77 6.819 16.563 16.564 16.563h151.018c9.736 0 17.534-7.799 16.568-16.563-0.001-8.765-6.819-16.564-16.564-16.564z" p-id="781"></path><path d="M736.274 515.533c-2.8 2.688-4.814 5.375-6.048 7.95-3.471 9.631-9.63 17.583-18.253 23.854-8.623 6.271-18.59 9.405-29.788 9.405-10.863 0-20.384-3.249-28.333-9.854-7.952-6.608-13.775-14.226-17.247-22.849-1.008-2.91-2.688-5.71-5.039-8.397-2.368-2.692-5.471-4.025-9.388-4.125h-1.408c-3.117 0.095-7.073 0.645-12.048 1.661-5.377 1.119-11.087 2.802-16.8 5.041-5.823 2.239-11.198 5.039-16.126 8.398-4.926 3.359-8.399 7.279-10.303 11.758-0.896 1.905-1.12 4.145-0.672 6.72 0.447 2.575 1.008 4.814 1.681 6.719 0.334 1.904 0.784 5.153 1.229 9.632 0.448 4.48 0.448 9.52 0 14.896-0.445 5.374-1.565 10.973-3.358 16.571-1.791 5.601-4.589 10.416-8.398 14.224-8.063 7.615-17.247 12.207-27.66 13.662-10.416 1.457-20.384 0.225-30.013-3.584-2.913-0.896-5.599-1.566-7.952-1.901-2.351-0.338-4.815 0.335-7.39 1.901-3.139 1.904-6.162 4.817-8.849 8.848-2.688 4.032-5.039 8.4-7.168 13.216s-3.809 9.743-5.039 14.894c-1.232 5.151-1.903 9.855-1.903 14 0 3.807 1.009 7.614 2.91 11.31 1.903 3.697 4.258 5.937 7.168 6.943 9.632 3.808 18.479 10.19 26.205 18.479 7.727 8.285 11.534 18.143 11.534 29.34 0 10.862-3.807 20.719-11.534 29.563-7.726 8.848-16.349 15.23-25.98 19.039-5.488 1.904-8.623 6.383-9.632 13.438-0.56 3.809-0.223 8.736 1.009 14.671 1.23 5.935 3.134 11.758 5.488 17.357 2.464 5.599 5.15 10.64 8.174 15.345 3.022 4.59 6.383 7.615 9.855 8.847 4.48 2.016 8.959 2.237 13.438 1.007 6.943-2.239 13.886-3.474 20.604-3.809 5.714-0.336 11.871 0.226 18.256 1.681 6.384 1.457 11.869 4.593 16.349 9.406 7.281 7.952 11.423 16.798 12.207 26.205 0.896 9.521-0.56 17.919-4.03 25.31-2.575 5.489-3.697 9.744-3.584 12.768 0.225 3.023 1.12 5.712 2.688 7.951 2.239 3.246 5.599 6.384 10.077 9.63 4.479 3.138 9.519 6.047 15.118 8.401 5.6 2.462 11.198 4.479 16.8 6.045 5.599 1.57 10.639 2.354 15.117 2.354 3.808 0 7.278-0.895 10.527-2.688 3.135-1.791 5.599-4.59 7.165-8.398 3.472-9.632 9.631-18.142 18.479-25.31 8.848-7.279 18.701-10.863 29.564-10.863 11.198 0 21.053 3.695 29.563 10.863 8.512 7.279 14.561 15.791 18.03 25.758h0.449c0.896 2.462 2.688 4.926 5.264 7.166 2.575 2.239 5.265 3.359 8.174 3.359 4.145 0 9.072-0.671 14.447-1.902a82.287 82.287 0 0 0 15.566-5.264 105.251 105.251 0 0 0 13.662-7.503c4.257-2.688 7.278-5.377 9.183-7.952 4.143-6.384 4.704-12.878 1.455-19.263-4.255-9.296-5.598-19.038-4.365-29.342 1.231-10.303 5.71-19.373 13.438-27.436 3.584-3.809 7.839-6.608 12.767-8.175 4.929-1.569 9.968-2.688 14.896-3.138 4.926-0.56 9.854-0.335 14.669 0.449 4.815 0.896 8.735 1.68 11.981 2.688 3.584 1.23 6.722 1.901 9.632 1.901s6.272-1.006 10.078-2.91c3.809-1.903 7.279-5.152 10.527-9.632 3.248-4.479 5.935-9.518 8.174-15.118 2.24-5.598 3.921-11.087 4.817-16.572 0.895-5.489 1.12-10.193 0.446-13.999-1.343-4.594-3.694-8.288-7.389-10.862a41.87 41.87 0 0 0-5.712-3.809c-9.63-3.584-17.356-9.406-23.292-17.581-5.937-8.177-8.848-17.806-8.848-28.669 0-11.313 3.47-21.277 10.527-30.125 7.054-8.736 15.452-14.895 25.42-18.479 2.464-1.009 4.929-3.025 7.393-6.048 2.462-3.025 3.36-7.28 2.688-12.768-1.232-9.295-3.696-18.477-7.392-27.659-3.698-9.184-7.953-16.016-12.767-20.495-2.577-2.575-5.712-4.03-9.407-4.365-3.695-0.338-6.832 0.335-9.407 1.901-9.632 4.481-20.046 6.271-31.244 5.487-11.199-0.785-20.604-5.039-28.333-12.767-7.614-7.726-12.318-16.687-13.887-26.989-1.679-10.303-0.336-20.046 3.808-29.34 0.673-1.232 1.231-3.473 1.904-6.496 0.671-3.021 0.111-5.824-1.457-8.399-2.575-4.143-5.935-8.062-10.303-11.532-4.367-3.474-9.071-6.384-14.223-8.623-5.039-2.24-10.303-4.034-15.566-5.265-3.927-0.919-7.666-1.525-11.173-1.774h-4.91c-2.402 0.395-4.731 1.767-6.982 4.017z m43.673 178.284c5.489 12.654 8.177 26.205 8.177 40.652 0 14.446-2.688 27.997-8.177 40.649-5.374 12.767-12.878 23.854-22.285 33.483-9.406 9.632-20.604 17.136-33.372 22.623-12.878 5.488-26.43 8.175-40.876 8.175-14.445 0-27.884-2.686-40.539-8.175-12.653-5.487-23.74-12.991-33.148-22.623-9.407-9.629-16.797-20.827-22.285-33.483-5.487-12.652-8.174-26.204-8.174-40.649 0-14.447 2.8-27.998 8.174-40.652 5.375-12.655 12.878-23.742 22.285-33.146 9.408-9.521 20.495-16.911 33.148-22.398 12.545-5.488 26.094-8.175 40.539-8.175 14.446 0 28.109 2.687 40.876 8.175 12.768 5.487 23.966 12.991 33.372 22.398 9.407 9.404 16.799 20.491 22.285 33.146z" p-id="782"></path></svg>