<?xml version="1.0" standalone="no"?><!DOCTYPE svg PUBLIC "-//W3C//DTD SVG 1.1//EN" "http://www.w3.org/Graphics/SVG/1.1/DTD/svg11.dtd"><svg t="1568949707429" class="icon" viewBox="0 0 1024 1024" version="1.1" xmlns="http://www.w3.org/2000/svg" p-id="1494" xmlns:xlink="http://www.w3.org/1999/xlink" width="200" height="200"><defs><style type="text/css"></style></defs><path d="M261.12 338.090667h229.262222c-14.791111-27.306667-32.995556-52.906667-54.613333-77.368889l54.044444-19.911111c20.48 27.306667 39.822222 59.733333 57.457778 97.28h215.608889v53.475555h-87.04c-27.306667 86.471111-67.697778 158.72-121.173333 217.315556 59.164444 48.355556 133.12 88.746667 220.728889 120.604444l-30.151112 45.511111c-91.591111-34.133333-167.822222-76.8-228.124444-128-64.284444 56.888889-143.36 98.986667-237.226667 126.293334l-29.013333-47.786667c92.16-23.893333 167.822222-61.44 228.124444-113.208889a509.155556 509.155556 0 0 1-130.844444-220.728889H261.12v-53.475555z m138.808889 53.475555c23.893333 69.973333 62.577778 131.413333 116.622222 183.751111 46.08-50.631111 80.782222-112.071111 103.537778-183.751111H399.928889zM512 113.777778C292.465778 113.777778 113.777778 292.465778 113.777778 512s178.688 398.222222 398.222222 398.222222 398.222222-178.688 398.222222-398.222222-178.688-398.222222-398.222222-398.222222z m0-56.888889a455.111111 455.111111 0 1 1-0.056889 910.279111A455.111111 455.111111 0 0 1 512 56.888889z" p-id="1495"></path></svg>