<?xml version="1.0" standalone="no"?><!DOCTYPE svg PUBLIC "-//W3C//DTD SVG 1.1//EN" "http://www.w3.org/Graphics/SVG/1.1/DTD/svg11.dtd"><svg t="1568954135826" class="icon" viewBox="0 0 1024 1024" version="1.1" xmlns="http://www.w3.org/2000/svg" p-id="4876" xmlns:xlink="http://www.w3.org/1999/xlink" width="200" height="200"><defs><style type="text/css"></style></defs><path d="M169.179429 1024V704.658286H292.571429v88.429714h62.171428V704.365714h120.539429c0.658286 2.194286 1.901714 4.388571 1.901714 6.729143-0.073143 104.301714-0.365714 208.603429-0.512 312.905143H169.179429z m371.565714 0V704.658286h122.806857v88.722285h62.464V704.365714h122.148571V1024H540.745143zM0.146286 381.659429c0-38.034286-0.585143-74.166857 0.658285-110.299429 0.146286-5.339429 8.118857-12.288 13.897143-15.36C155.574857 182.052571 296.740571 108.251429 437.833143 34.596571c20.918857-10.971429 41.545143-22.674286 62.902857-32.256a28.745143 28.745143 0 0 1 22.966857 0.292572c163.108571 86.674286 325.851429 173.860571 488.594286 261.339428 4.681143 2.56 10.971429 8.777143 10.971428 13.531429 1.024 34.157714 0.585143 68.315429 0.585143 104.96-40.96-20.48-79.798857-39.862857-118.637714-59.392-127.268571-63.853714-254.537143-127.707429-381.44-192.073143a32.402286 32.402286 0 0 0-32.914286 0.292572C333.531429 212.260571 175.981714 292.644571 18.432 373.248c-5.485714 2.779429-11.117714 5.12-18.358857 8.411429zM483.035429 656.091429h-318.902858V322.56h135.68v88.576h47.689143V322.340571h135.533715V656.091429z m371.565714-0.292572H534.674286v-333.531428H670.72v88.649142h48.713143V322.048h135.241143v333.750857z" p-id="4877"></path></svg>