<?xml version="1.0" standalone="no"?><!DOCTYPE svg PUBLIC "-//W3C//DTD SVG 1.1//EN" "http://www.w3.org/Graphics/SVG/1.1/DTD/svg11.dtd"><svg t="1568951116434" class="icon" viewBox="0 0 1024 1024" version="1.1" xmlns="http://www.w3.org/2000/svg" p-id="2501" xmlns:xlink="http://www.w3.org/1999/xlink" width="200" height="200"><defs><style type="text/css"></style></defs><path d="M467.4 735.7v-89.6h-89.6c-24.7 0-44.8-20.1-44.8-44.8 0-24.7 20.1-44.8 44.8-44.8h89.6V467c0-24.7 20.1-44.8 44.8-44.8 24.7 0 44.8 20.1 44.8 44.8v89.6h89.6c24.7 0 44.8 20.1 44.8 44.8 0 24.7-20.1 44.8-44.8 44.8H557v89.6c0 24.7-20.1 44.8-44.8 44.8-24.8-0.2-44.8-20.2-44.8-44.9z m403-492.6c49.5 0 89.6 40.1 89.6 89.6V870c0 49.5-40.1 89.6-89.6 89.6H153.9c-49.5 0-89.6-40.1-89.6-89.6V332.6c0-49.5 40.1-89.6 89.6-89.6H333v-89.6c0-49.5 40.1-89.6 89.6-89.6h179.1c49.5 0 89.6 40.1 89.6 89.6V243h179.1z m-447.8-44.8v44.8h179.1v-44.8c0-24.7-20.1-44.8-44.8-44.8h-89.6c-24.6 0-44.7 20.1-44.7 44.8z m447.8 626.9V377.4c0-24.7-20.1-44.8-44.8-44.8H198.7c-24.7 0-44.8 20.1-44.8 44.8v447.8c0 24.7 20.1 44.8 44.8 44.8h626.9c24.8 0 44.8-20.1 44.8-44.8z" p-id="2502"></path></svg>