<?xml version="1.0" standalone="no"?><!DOCTYPE svg PUBLIC "-//W3C//DTD SVG 1.1//EN" "http://www.w3.org/Graphics/SVG/1.1/DTD/svg11.dtd"><svg t="1568954021059" class="icon" viewBox="0 0 1024 1024" version="1.1" xmlns="http://www.w3.org/2000/svg" p-id="4112" xmlns:xlink="http://www.w3.org/1999/xlink" width="200" height="200"><defs><style type="text/css"></style></defs><path d="M512 964c248.592 0 452-203.408 452-452C964 263.392 760.592 60 512 60S60 263.392 60 512c0 248.592 203.408 452 452 452z m128.064-514.768c37.664-35.168 40.192-97.952 2.496-135.616 0-2.528-2.496-2.528-2.496-2.528a104.768 104.768 0 0 0-143.12 0L331.2 469.312c-62.784 60.272-65.28 158.208-4.992 223.488l4.992 5.008c65.312 62.784 170.784 62.784 236.064 0l75.312-75.328c12.56-10.048 30.16-10.048 40.192 0s12.56 27.616 0 37.664l-75.312 75.36c-90.4 85.376-231.024 85.376-318.944 0-82.88-80.368-85.376-213.456-4.992-298.832l7.536-7.552 165.712-158.192c62.784-60.272 163.216-60.272 226 0 60.288 57.76 62.784 153.152 5.024 213.456-2.528 2.512-2.528 4.992-5.024 4.992l-42.704-40.144z m-143.12 138.096l143.12-138.096 40.192 40.16-143.136 138.128a97.168 97.168 0 0 1-133.088 0c-35.152-32.64-37.68-90.416-2.528-125.568l2.528-2.512 92.912-90.384c12.56-10.048 30.128-10.048 40.192 0 10.032 10.032 12.528 27.632 0 37.664l-92.944 90.368c-12.56 12.576-15.056 35.168 0 47.712a38.8 38.8 0 0 0 52.752 2.528z" p-id="4113"></path></svg>