<?xml version="1.0" standalone="no"?><!DOCTYPE svg PUBLIC "-//W3C//DTD SVG 1.1//EN"
  "http://www.w3.org/Graphics/SVG/1.1/DTD/svg11.dtd">
<svg t="1564745407881" class="icon" viewBox="0 0 1024 1024" version="1.1" xmlns="http://www.w3.org/2000/svg" p-id="1315"
     xmlns:xlink="http://www.w3.org/1999/xlink" width="200" height="200">
  <defs>
    <style type="text/css"></style>
  </defs>
  <path
    d="M512 725.333333a213.333333 213.333333 0 1 1 60.16-418.133333 42.666667 42.666667 0 0 1-23.893333 81.92A128 128 0 1 0 640 512a130.56 130.56 0 0 0-3.413333-28.586667 42.666667 42.666667 0 1 1 83.2-18.773333A213.333333 213.333333 0 0 1 512 725.333333z"
    p-id="1316"></path>
  <path
    d="M554.666667 1024h-85.333334a85.333333 85.333333 0 0 1-85.333333-85.333333v-64.853334a346.88 346.88 0 0 1-38.4-15.786666l-44.8 46.08a85.333333 85.333333 0 0 1-60.16 25.173333 85.333333 85.333333 0 0 1-60.16-25.173333l-60.586667-60.586667a85.333333 85.333333 0 0 1 0-120.746667l45.653334-45.653333A334.933333 334.933333 0 0 1 149.333333 640H85.333333a85.333333 85.333333 0 0 1-85.333333-85.333333v-85.333334a85.333333 85.333333 0 0 1 85.333333-85.333333h64.853334a331.093333 331.093333 0 0 1 15.786666-38.4l-46.08-42.666667a85.333333 85.333333 0 0 1 0-120.746666l60.586667-62.293334a85.333333 85.333333 0 0 1 60.16-25.173333 85.333333 85.333333 0 0 1 60.16 25.173333l45.653333 45.653334A341.333333 341.333333 0 0 1 384 149.333333V85.333333a85.333333 85.333333 0 0 1 85.333333-85.333333h85.333334a85.333333 85.333333 0 0 1 85.333333 85.333333v64.853334a346.88 346.88 0 0 1 38.4 15.786666l44.8-45.653333a85.333333 85.333333 0 0 1 60.16-25.173333 85.333333 85.333333 0 0 1 60.16 25.173333l60.586667 60.586667a85.333333 85.333333 0 0 1 0 120.746666l-45.653334 44.8a334.933333 334.933333 0 0 1 16.213334 37.546667H938.666667a85.333333 85.333333 0 0 1 85.333333 85.333333v85.333334a85.333333 85.333333 0 0 1-85.333333 85.333333h-64.426667a371.626667 371.626667 0 0 1-15.786667 38.4l46.08 42.666667a85.333333 85.333333 0 0 1 0 120.746666l-60.586666 60.586667a85.333333 85.333333 0 0 1-60.16 25.173333 85.333333 85.333333 0 0 1-60.16-25.173333l-45.653334-45.653333a341.333333 341.333333 0 0 1-37.973333 16.213333V938.666667a85.333333 85.333333 0 0 1-85.333333 85.333333z m-208.213334-250.88a85.333333 85.333333 0 0 1 36.266667 8.106667 291.413333 291.413333 0 0 0 30.293333 12.373333A85.333333 85.333333 0 0 1 469.333333 873.813333V938.666667h85.333334v-64.853334a85.333333 85.333333 0 0 1 56.32-80.213333 287.146667 287.146667 0 0 0 30.293333-12.373333 85.333333 85.333333 0 0 1 96.853333 16.64l45.653334 45.653333 60.586666-60.586667-45.653333-45.653333a85.333333 85.333333 0 0 1-17.493333-97.28 283.306667 283.306667 0 0 0 12.373333-30.293333A85.333333 85.333333 0 0 1 873.813333 554.666667H938.666667v-85.333334h-64.853334a85.333333 85.333333 0 0 1-80.213333-56.32 294.4 294.4 0 0 0-12.373333-29.866666 85.333333 85.333333 0 0 1 16.64-96.853334l45.653333-45.653333-60.16-60.586667-45.653333 45.653334a85.333333 85.333333 0 0 1-97.706667 17.066666 291.413333 291.413333 0 0 0-30.293333-12.373333A85.333333 85.333333 0 0 1 554.666667 150.186667V85.333333h-85.333334v64.853334a85.333333 85.333333 0 0 1-56.32 79.786666 287.146667 287.146667 0 0 0-29.013333 12.8 85.333333 85.333333 0 0 1-96.853333-16.64L240.64 180.053333 180.053333 240.64l45.653334 45.653333A85.333333 85.333333 0 0 1 242.773333 384a283.306667 283.306667 0 0 0-12.373333 30.293333A85.333333 85.333333 0 0 1 150.186667 469.333333H85.333333v85.333334h64.853334a85.333333 85.333333 0 0 1 80.213333 56.32 294.4 294.4 0 0 0 12.373333 29.866666 85.333333 85.333333 0 0 1-16.64 96.853334l-46.08 45.653333 60.586667 60.586667 45.653333-45.653334a85.333333 85.333333 0 0 1 60.16-25.173333z"
    p-id="1317"></path>
</svg>
