<?xml version="1.0" standalone="no"?><!DOCTYPE svg PUBLIC "-//W3C//DTD SVG 1.1//EN"
  "http://www.w3.org/Graphics/SVG/1.1/DTD/svg11.dtd">
<svg t="1564758803890" class="icon" viewBox="0 0 1024 1024" version="1.1" xmlns="http://www.w3.org/2000/svg" p-id="3928"
     xmlns:xlink="http://www.w3.org/1999/xlink" width="200" height="200">
  <defs>
    <style type="text/css"></style>
  </defs>
  <path
    d="M93.090909 72.238545C93.090909 32.349091 125.626182 0 165.701818 0h692.596364C898.327273 0 930.909091 32.349091 930.909091 72.238545v714.426182c0 39.889455-32.535273 72.238545-72.610909 72.238546h-243.712l-109.149091 127.534545-110.312727-127.534545H165.701818c-19.223273 0-37.701818-7.633455-51.339636-21.178182A72.052364 72.052364 0 0 1 93.090909 786.664727V72.238545z m497.384727 562.920728a108.078545 108.078545 0 0 0 96.581819 60.416 107.194182 107.194182 0 0 0 107.194181-106.589091c0-55.342545-41.937455-98.722909-92.904727-105.658182V303.243636c23.179636-9.634909 39.284364-32.302545 39.284364-58.973091 0-35.560727-28.578909-64-64.279273-64-35.746909 0-64.325818 28.439273-64.325818 64 0 29.323636 19.549091 53.853091 46.452363 61.44v180.875637a106.682182 106.682182 0 0 0-42.496 25.134545L396.939636 318.836364c7.307636-12.288 11.450182-26.810182 11.450182-42.542546 0-46.219636-35.700364-81.733818-82.152727-81.733818-46.452364 0-82.199273 39.098182-82.199273 81.733818 0 46.173091 35.746909 81.733818 82.199273 81.733818 15.453091 0 29.742545-3.956364 41.890909-10.938181l223.883636 197.21309c-6.842182 13.730909-11.170909 28.951273-12.101818 44.683637v3.584H340.154182a56.32 56.32 0 0 0-53.201455-35.560727 56.32 56.32 0 0 0-57.157818 56.878545 56.32 56.32 0 0 0 57.157818 56.832c24.529455 0 44.916364-14.429091 53.201455-35.514182h250.368z"
    p-id="3929"></path>
</svg>
