<?xml version="1.0" standalone="no"?><!DOCTYPE svg PUBLIC "-//W3C//DTD SVG 1.1//EN"
  "http://www.w3.org/Graphics/SVG/1.1/DTD/svg11.dtd">
<svg t="1564745733827" class="icon" viewBox="0 0 1024 1024" version="1.1" xmlns="http://www.w3.org/2000/svg" p-id="1474"
     xmlns:xlink="http://www.w3.org/1999/xlink" width="200" height="200">
  <defs>
    <style type="text/css"></style>
  </defs>
  <path
    d="M882.43309 680.985716l-1.010045-5.879917-3.43231 0-2.77532-12.561084 4.16298-0.895393-9.677803-66.405409-11.721429-1.789763-2.08149-11.666714 11.721429 0.89437-4.125116-37.686321-6.902483-0.912789-5.515846-43.073005 6.903506 0-9.678827-50.248428-24.139759-5.386684 8.966576 61.915142-4.839413 0-2.755877-14.350846-12.417306-3.596921-6.22605-45.774533-106.269586-21.527292 5.514823 47.563272-10.335816 0-4.83839-50.265824-74.535561-13.456477 3.45073 52.055586-10.35219-1.807159-4.145583-53.845349-137.347646-26.018583 2.77532 81.671091-14.497773 0-2.08149-84.355223-41.394432-8.088212-2.064093 87.056752-47.628669-5.386684 0.69383-9.876951 28.986336 3.596921-2.767133-79.882352-95.925583-17.947767 0 33.212426 17.246486 3.596921-2.06307 27.807323-28.987359-3.578502 0.68462-64.617693-18.633123-1.789763-4.136373 60.125379-20.012596-1.808182 3.451753-62.809511-50.386592-8.982582-42.097472 208.201879-11.523923 148.57178L42.512951 680.982646l0 55.706743 934.879682 0 0-55.706743L882.43309 680.982646zM813.788944 544.081673l6.228097 0 8.2707 70.898747 27.608909 3.596921 1.385613 15.245216-36.591859-1.788739 4.839413 39.492456-18.643356 0-4.820993-55.651484 20.012596 0L813.788944 544.081673zM764.800246 483.061924l-12.416283-2.684132-4.14456-35.002189 20.012596 4.473895 6.20763 50.266847 33.121685 4.491291 0 11.667737-33.121685-2.702552 4.839413 47.563272-32.448322-1.788739-2.7569-30.509874 27.608909 4.491291L764.800246 483.061924zM707.520382 559.346331l53.135305 6.281053 11.047043 100.514251-17.949526-1.788739-9.659383-85.268012-36.572415-3.579525L707.521405 559.346331zM650.240517 439.09455l24.156133 4.473895 10.334793 119.357412-6.90146 1.807159-6.902483-61.932538-48.988698-6.281053-0.67541-11.667737 32.427855 3.597945L650.240517 439.09455zM629.535114 533.327748l13.80292-5.386684 3.451753 37.686321-53.136328-1.788739-1.386637-32.318056L629.535114 533.327748zM533.617718 466.902896l4.12614 97.830119 38.636509 1.789763 10.371633-4.491291 3.433333 42.176588-15.869059 7.193843-0.67541 5.386684 4.822016 0.89437 2.080467 45.756113-53.152702 0.914836-4.839413-113.990171-34.509346-4.472871-3.433333-85.268012L533.617718 466.902896zM479.771186 594.34852l0.674386 79.409584-10.391077-0.413416-2.024183-61.941747-19.317743-0.89437-0.694853-18.86158L479.771186 594.34852zM368.662186 579.979254l20.696193 0 2.07228-72.688509 9.668593 0-0.69383 43.071981 37.970309 3.596921 0 15.263635-35.898029 0-1.37845 83.461877L373.491366 652.685159l-1.37845-67.320245-46.242032-4.472871-0.69383-5.386684L368.662186 579.979254zM247.191787 427.426813l51.765042 8.070816 0 8.070816 28.292506 3.596921-0.683597 51.161217 18.623913 2.684132 0 8.070816-17.939293-1.789763-0.683597 28.721135-60.046998-6.28003 0-7.176446 26.914056 2.684132 3.451753-76.28543-50.378405-8.964162L247.191787 427.426813zM265.82491 530.625196l-1.834863 22.127973L256.86038 552.46255l0.922037-23.024389L265.82491 530.625196zM237.532404 592.539314l36.582649 2.704598-1.308862 70.242807-11.859581-0.472767-0.635499-60.805878-23.473559-1.788739L237.532404 592.539314zM187.155022 345.446683l-4.372767 58.646702 1.150243-1.497097-3.907143 66.699098-1.845097 2.994194 4.372767-66.406432-0.69383 0.292666 4.14456-54.739718L187.155022 345.446683zM180.481769 380.447848c0 0 1.114426-4.946662 1.513532-7.106862 0.039911-0.574075 0.073681-0.913812 0.102335-0.962931 0.082891-0.147356 0.02763 0.264013-0.102335 0.962931-0.442086 6.471388-1.513532 43.314505-1.513532 43.314505l-3.678937 12.269441L180.481769 380.447848zM178.874089 495.623008l46.232822 4.491291 0 17.052374-46.926652-4.489244-3.451753 8.068769 0.69383-16.140609L178.874089 495.623008zM162.07583 483.663628l2.76611-8.983605 0 9.275247-1.159453 3.28686 0 10.480702-2.528693 6.882757L162.07583 483.663628zM165.992183 490.840074l1.379473-7.486508 1.834863-2.975774 4.601997-69.108984 1.38766-2.099824-4.372767 73.892941-3.45073 11.06501-3.916353 71.793116-2.529717 5.695722L165.992183 490.840074zM171.972629 546.473139l-5.524033 16.761756-2.76611 45.77351-1.141033 1.788739 2.985106-58.044997 6.673253-19.73753L171.972629 546.473139zM172.199813 574.299905l-2.300487 46.378284-0.922037 0 2.07228-44.880163L172.199813 574.299905zM155.401553 567.727209l1.844073-5.989411 1.60768-4.78498-1.60768 29.305443-1.151267 3.889587-1.37845 0.311085 1.844073-21.23565L155.401553 567.727209zM160.00355 586.258261l0 11.376095-3.908166 10.462283 0-11.356652L160.00355 586.258261zM150.80058 548.863582l1.844073-29.906124 0.922037-3.28686 0.456413 2.099824-0.68462 3.28686-1.844073 29.305443-0.228207 3.889587-0.922037-0.895393L150.80058 548.863582zM682.686793 608.4067l21.382859 1.789763 1.150243 12.269441 14.497773 2.099824 0.694853 5.368264-14.278776 0.913812 2.53688 35.585473-15.173183 3.888564 0.380686 10.663874-5.682652 0L682.686793 608.4067z"
    p-id="1475"></path>
</svg>
