<?xml version="1.0" standalone="no"?><!DOCTYPE svg PUBLIC "-//W3C//DTD SVG 1.1//EN"
  "http://www.w3.org/Graphics/SVG/1.1/DTD/svg11.dtd">
<svg t="1564753424272" class="icon" viewBox="0 0 1024 1024" version="1.1" xmlns="http://www.w3.org/2000/svg" p-id="1027"
     xmlns:xlink="http://www.w3.org/1999/xlink" width="200" height="200">
  <defs>
    <style type="text/css"></style>
  </defs>
  <path
    d="M592.5 904.7c-7.7 0-15.5-2.9-21.4-8.8L430.3 754.8c-11.8-11.8-11.8-30.9 0-42.7 11.8-11.8 30.9-11.8 42.7 0L614 853c11.8 11.8 11.8 30.9 0 42.7-6 6-13.7 9-21.5 9z"
    p-id="1028"></path>
  <path
    d="M592.5 904.7c-16.7 0-30.2-13.6-30.2-30.2V753.7c0-5.5-4.5-10-10-10H451.7c-16.7 0-30.2-13.6-30.2-30.2 0-16.7 13.6-30.2 30.2-30.2h100.6c38.8 0 70.5 31.6 70.5 70.5v120.8c0 16.5-13.6 30.1-30.3 30.1z"
    p-id="1029"></path>
  <path
    d="M451.5 763.1c-16.7 0-30.2-13.6-30.2-30.2V169.7c0-16.7 13.6-30.2 30.2-30.2 16.7 0 30.2 13.6 30.2 30.2v563.2c0.1 16.7-13.4 30.2-30.2 30.2zM310.6 884.5c-16.7 0-30.2-13.6-30.2-30.2V169.7c0-16.7 13.6-30.2 30.2-30.2s30.2 13.6 30.2 30.2v684.6c0.1 16.7-13.5 30.2-30.2 30.2z"
    p-id="1030"></path>
  <path
    d="M814 904.7H713.4c-16.7 0-30.2-13.6-30.2-30.2 0-16.7 13.6-30.2 30.2-30.2H814c5.5 0 10-4.5 10-10V189.8c0-5.5-4.5-10-10-10H212.8c-5.4 4.6-12.8 20.6-12.8 30.2v624.2c0 5.5 4.5 10 10 10h383.3c16.7 0 30.2 13.6 30.2 30.2 0 16.7-13.6 30.2-30.2 30.2H210c-38.8 0-70.5-31.6-70.5-70.5V210c0-37 27.5-90.6 70.5-90.6h604c38.8 0 70.5 31.6 70.5 70.5v644.4c0 38.7-31.6 70.4-70.5 70.4z"
    p-id="1031"></path>
</svg>
