<?xml version="1.0" standalone="no"?><!DOCTYPE svg PUBLIC "-//W3C//DTD SVG 1.1//EN"
  "http://www.w3.org/Graphics/SVG/1.1/DTD/svg11.dtd">
<svg t="1564745979722" class="icon" viewBox="0 0 1024 1024" version="1.1" xmlns="http://www.w3.org/2000/svg" p-id="1692"
     xmlns:xlink="http://www.w3.org/1999/xlink" width="200" height="200">
  <defs>
    <style type="text/css"></style>
  </defs>
  <path
    d="M459.2 895.3c-54.1-6.4-76.7-12.9-84.7-15.8-0.3-0.1-0.6-0.4-0.8-0.7-4.1-6.5-12-20-23.3-43.1-10.3-21.2-26.1-55.8-42.5-100.4-16-43.4-28.7-85.6-37.7-125.5-10.5-46.4-15.9-88.6-15.9-125.5 0-22.4 26.4-54.6 49.8-83 31.6-38.4 64.2-78.2 64.2-126 0-14.1-1.8-26.8-4.8-38.5-0.2-0.9 0.3-1.8 1.2-2 40.9-10.1 106.1-13.1 132.6-13.5 26.5 0.3 91.6 3.3 132.6 13.5 0.9 0.2 1.4 1.1 1.2 2-3 11.6-4.8 24.4-4.8 38.5 0 47.8 32.7 87.6 64.2 126 23.3 28.4 49.8 60.6 49.8 83 0 34.1-4.6 72.7-13.6 115-0.2 1 0.6 2 1.6 2h45.6c0.8 0 1.5-0.6 1.7-1.4 7.9-39.1 12.7-78.4 12.7-115.6 0-76-114-145-114-209s54-92 54-133c0-64-214.6-63.9-231-64-16.4 0.1-231 0-231 64 0 41 54 69 54 133s-114 133-114 209c0 180 113 409 135 431C355 929 412.2 938 453.7 942.9c14.3 1.7 28.6 2.5 43 2.6l1.7-1.7v-46.3h-1c-12.8 0.1-25.6-0.7-38.2-2.2zM318.7 151.8c-0.5-0.9-0.2-2 0.8-2.4 11.4-5 35-12.5 80.9-17.7 29.1-3.3 62.3-5.1 96.1-5.3h1.6c33.7 0.2 67 2 96.1 5.3 46 5.2 69.6 12.7 80.9 17.7 0.9 0.4 1.3 1.5 0.8 2.4-2.7 4.5-6.1 9.6-9.8 14.9-4.7 6.9-9.9 14.5-14.9 23-0.4 0.7-1.2 1-1.9 0.8-53.4-15.1-138.1-16.8-151.2-17h-1.6c-13.1 0.2-97.8 1.9-151.2 17-0.7 0.2-1.5-0.1-1.9-0.8-5-8.5-10.2-16.1-14.9-23-3.7-5.4-7.2-10.5-9.8-14.9z"
    p-id="1693"></path>
  <path
    d="M816.1 776.6H624.4c-0.9 0-1.7-0.8-1.7-1.7v-12.6c0-0.9-0.8-1.7-1.7-1.7h-28.6c-0.9 0-1.7 0.8-1.7 1.7v12.6c0 0.9-0.8 1.7-1.7 1.7h-44.6c-0.9 0-1.7 0.8-1.7 1.7v28.6c0 0.9 0.8 1.7 1.7 1.7H589c0.9 0 1.7 0.8 1.7 1.7v12.6c0 0.9 0.8 1.7 1.7 1.7H621c0.9 0 1.7-0.8 1.7-1.7v-12.6c0-0.9 0.8-1.7 1.7-1.7H816c0.9 0 1.7-0.8 1.7-1.7v-28.6c0.1-1-0.7-1.7-1.6-1.7zM816.1 864.7h-35.6c-0.9 0-1.7-0.8-1.7-1.7v-12.6c0-0.9-0.8-1.7-1.7-1.7h-28.6c-0.9 0-1.7 0.8-1.7 1.7V863c0 0.9-0.8 1.7-1.7 1.7H544.4c-0.9 0-1.7 0.8-1.7 1.7V895c0 0.9 0.8 1.7 1.7 1.7H745c0.9 0 1.7 0.8 1.7 1.7V911c0 0.9 0.8 1.7 1.7 1.7H777c0.9 0 1.7-0.8 1.7-1.7v-12.6c0-0.9 0.8-1.7 1.7-1.7H816c0.9 0 1.7-0.8 1.7-1.7v-28.6c0.1-1-0.7-1.7-1.6-1.7zM816.1 688.4h-35.6c-0.9 0-1.7-0.8-1.7-1.7v-12.6c0-0.9-0.8-1.7-1.7-1.7h-28.6c-0.9 0-1.7 0.8-1.7 1.7v12.6c0 0.9-0.8 1.7-1.7 1.7H544.4c-0.9 0-1.7 0.8-1.7 1.7v28.6c0 0.9 0.8 1.7 1.7 1.7H745c0.9 0 1.7 0.8 1.7 1.7v12.6c0 0.9 0.8 1.7 1.7 1.7H777c0.9 0 1.7-0.8 1.7-1.7v-12.6c0-0.9 0.8-1.7 1.7-1.7H816c0.9 0 1.7-0.8 1.7-1.7v-28.6c0.1-0.9-0.7-1.7-1.6-1.7z"
    p-id="1694"></path>
</svg>
